<svg width="1153" height="1792" viewBox="0 0 1153 1792" fill="none" xmlns="http://www.w3.org/2000/svg">
<path d="M133.95 169.305C138.573 152.051 152.051 138.573 169.305 133.95L306.723 97.1291C323.977 92.5057 342.388 97.4388 355.019 110.07L455.615 210.667C468.247 223.298 473.18 241.708 468.556 258.963L431.736 396.38C427.112 413.635 413.635 427.112 396.38 431.736L258.963 468.556C241.708 473.18 223.298 468.247 210.666 455.616L110.07 355.019C97.4387 342.388 92.5057 323.977 97.129 306.723L133.95 169.305Z" stroke="#4E5C68" stroke-width="45"/>
<path d="M191.343 383.173C195.984 380.493 201.702 380.493 206.343 383.173L256.295 412.013C260.936 414.692 263.795 419.644 263.795 425.003V482.683C263.795 488.042 260.936 492.993 256.295 495.673L206.343 524.513C201.702 527.192 195.984 527.192 191.343 524.513L141.391 495.673C136.75 492.993 133.891 488.042 133.891 482.683V425.003C133.891 419.644 136.75 414.692 141.391 412.013L191.343 383.173Z" stroke="#00ADB5" stroke-width="22"/>
<path d="M252.865 647.936C253.79 644.485 256.485 641.79 259.936 640.865L285.005 634.148C288.456 633.223 292.138 634.21 294.664 636.736L313.016 655.088C315.542 657.614 316.528 661.296 315.604 664.747L308.887 689.816C307.962 693.267 305.266 695.962 301.816 696.887L276.747 703.604C273.296 704.529 269.614 703.542 267.088 701.016L248.736 682.664C246.21 680.138 245.223 676.456 246.148 673.005L252.865 647.936Z" stroke="#4E5C68" stroke-width="15"/>
</svg>
